# xmcd
#
# Track frame offsets: 
#        150
#        18025
#        31320
#        37812
#        53357
#        67550
#        82550
#        91222
#        100457
#        110760
#        127690
#        140702
#        151480
#        159570
#        171710
#        186367
#        200787
#        210752
#
# Disc length: 3033 seconds
#
# Revision: 0
# Processed by: cddbd v1.5.1PL2 Copyright (c) Steve Scherf et al.
# Submitted via: ExactAudioCopy v0.95a5
#
DISCID=dd0bd712
DTITLE=Various Artist - Oh Brother Can You Spare a Dime?
DYEAR=2004
DGENRE=Bluegrass
TTITLE0=Peter Rowan - I Ain't Got No Home
TTITLE1=Benny Martin - Freight Train Blues
TTITLE2=Maggie Griffin - Big Rock Candy Mountain
TTITLE3=Tim O'Brien - Brother Can You Spare a Dime?
TTITLE4=Mac Wiseman - May I Sleep in Your Barn Tonight, Mister
TTITLE5=Peter Rowan - No Depression in Heaven
TTITLE6=Ralph Smith - In the Jailhouse Now
TTITLE7=Mac Wiseman - Jimmy Brown the Newsboy
TTITLE8=Tommy Faile - Boll Weevil
TTITLE9=Tim O'Brien - There'll Be No Distinction
TTITLE10=Merle Travis - Cocaine Blues
TTITLE11=Osborne Brothers - I'll Fly Away
TTITLE12=Grandpa Jones - Waiting for a Train
TTITLE13=Arthur Smith - Cannonball Blues
TTITLE14=Merle Travis - Peach Pickin' Time in Georgia
TTITLE15=Eddie Adcock - Eddie's Matchbox Blues
TTITLE16=Carl Story and his Rambling Mountaineers - Heaven Bound Train
TTITLE17=Carl Story - Angel Band
EXTD=
EXTT0=
EXTT1=
EXTT2=
EXTT3=
EXTT4=
EXTT5=
EXTT6=
EXTT7=
EXTT8=
EXTT9=
EXTT10=
EXTT11=
EXTT12=
EXTT13=
EXTT14=
EXTT15=
EXTT16=
EXTT17=
PLAYORDER=
